<svg xmlns="http://www.w3.org/2000/svg" viewBox="0 0 256 296" width="24" height="24" fill="currentColor">
  <path d="M240.5 93.7c-24.1-6.5-45.1-20.4-60.5-39.2-6.3-7.8-11.4-16.4-15.4-25.6-2.3-5.2-4-10.7-5.3-16.3h-45.4v190.6c0 17.4-10.5 32.9-26.6 39.5-4.9 2.1-10.3 3.3-15.9 3.3-22.1 0-40.1-18-40.1-40.1s18-40.1 40.1-40.1c2.2 0 4.4.2 6.5.6v-47.1c-2.1-.2-4.3-.3-6.5-.3-48.2 0-87.3 39.1-87.3 87.3s39.1 87.3 87.3 87.3c10.1 0 19.8-1.7 28.9-5 38.5-13.6 64.4-50.3 64.4-92.3V125c16.6 12.1 36.6 20.1 58.4 24.1v-55.4z"></path>
</svg>
